<svg xmlns="http://www.w3.org/2000/svg" xmlns:xlink="http://www.w3.org/1999/xlink" width="375" height="238" viewBox="0 0 375 238"><defs><style>.a{fill:#fff;stroke:#707070;}.b{clip-path:url(#a);}.c,.d{fill:#40bb6a;}.c{opacity:0.3;}.e,.g{opacity:0.28;}.f{fill:#e6e6e7;opacity:0.25;}.g{fill:url(#b);}</style><clipPath id="a"><rect class="a" width="375" height="238" transform="translate(0 33)"/></clipPath><linearGradient id="b" x1="0.5" x2="0.5" y2="1" gradientUnits="objectBoundingBox"><stop offset="0" stop-color="#fff"/><stop offset="1" stop-color="#fff" stop-opacity="0"/></linearGradient></defs><g class="b" transform="translate(0 -33)"><ellipse class="c" cx="359.5" cy="196.5" rx="359.5" ry="196.5" transform="translate(-183 -138)"/><path class="d" d="M359.344-4.488C557.8-6.967,717.322,80.945,715.637,191.868S551.7,394.72,353.243,397.2-4.735,311.766-3.051,200.844,160.884-2.009,359.344-4.488Z" transform="matrix(0.998, 0.07, -0.07, 0.998, -140.462, -180.462)"/><g transform="translate(0 33)"><g class="e" transform="translate(-66.324 -95.598)"><path class="f" d="M23,0H175.961a39,39,0,0,1,39,39V354.445a50,50,0,0,1-50,50H0a0,0,0,0,1,0,0V23A23,23,0,0,1,23,0Z" transform="translate(-38.535 306.376) rotate(-60)"/><path class="f" d="M23,0H175.961a39,39,0,0,1,39,39V354.445a50,50,0,0,1-50,50H0a0,0,0,0,1,0,0V23A23,23,0,0,1,23,0Z" transform="translate(-39.556 180.76) rotate(-60)"/></g><circle class="g" cx="82" cy="82" r="82" transform="translate(284 32)"/><circle class="g" cx="52" cy="52" r="52" transform="translate(159 -60)"/><circle class="g" cx="52" cy="52" r="52" transform="translate(92.967 227.033) rotate(-120)"/></g></g></svg>